<?xml version="1.0" encoding="UTF-8"?> <svg xmlns="http://www.w3.org/2000/svg" width="132" height="139" viewBox="0 0 132 139" fill="none"><path d="M63.1147 58.5778C56.0313 65.1306 46.8822 68.1687 36.9469 68.1687C11.3682 68.1687 0.547243 51.6699 0.449796 34.8895C0.354514 18.0204 12.0568 0.876221 36.9469 0.876221C46.2932 0.876221 55.15 4.18942 62.2333 10.7335L53.5735 18.5747C49.0477 14.4235 42.9496 12.4897 36.9469 12.4897C20.3225 12.4897 13.1396 24.1054 13.2392 34.8895C13.3388 45.5849 19.9283 56.7393 36.9469 56.7393C42.9496 56.7393 49.7363 54.4331 54.2621 50.1952L63.1147 58.5778Z" fill="#1B1B1B"></path><path d="M131.659 2.25317V39.2245C131.659 58.3025 118.807 68.0797 101.022 68.0797C84.0313 68.0797 69.5767 58.6728 69.5767 39.2245V2.25317H82.8143V39.2245C82.8143 50.838 90.0925 57.014 101.121 57.014C112.137 57.014 118.406 50.2837 118.406 39.2245V2.25317H131.659Z" fill="#1B1B1B"></path><path d="M64.1774 93.0608C64.1774 98.0349 61.5442 102.831 54.9763 105.508C63.2658 107.812 66.3018 115.833 66.3018 119.889C66.3018 134.266 54.4717 138.876 39.8092 138.876C28.5876 138.876 17.4657 138.876 6.24414 138.876V74.3445C17.3661 74.3445 28.5876 74.3445 39.8092 74.3445C53.7614 74.3445 64.1774 80.0592 64.1774 93.0608ZM19.3865 100.25H39.8092C48.2005 100.25 50.9311 97.0193 50.9311 93.3358C50.9311 90.3886 48.3022 85.4058 39.8092 85.4058H19.3865V100.25ZM19.3865 127.535H39.8092C45.2684 127.535 53.0555 125.872 53.0555 119.792C53.0555 113.988 45.2684 110.939 39.8092 110.939H19.3865V127.535Z" fill="#1B1B1B"></path><path d="M128.471 138.874H75.4946C75.4946 117.392 75.4946 95.8261 75.4946 74.3445H128.471V86.1442H88.7452V100.986H127.051V112.325H88.7452V126.892H128.473V138.874H128.471Z" fill="#1B1B1B"></path></svg> 