<?xml version="1.0" encoding="UTF-8"?> <svg xmlns="http://www.w3.org/2000/svg" width="43" height="45" viewBox="0 0 43 45" fill="none"><path d="M20.307 19.1507C18.0508 21.238 15.1365 22.2057 11.9718 22.2057C3.82421 22.2057 0.377415 16.9503 0.346375 11.6053C0.316025 6.23194 4.04356 0.770996 11.9718 0.770996C14.9489 0.770996 17.7701 1.82635 20.0263 3.91085L17.2679 6.40852C15.8263 5.08622 13.8839 4.47025 11.9718 4.47025C6.67643 4.47025 4.38845 8.1702 4.42018 11.6053C4.45191 15.0121 6.55089 18.5651 11.9718 18.5651C13.8839 18.5651 16.0456 17.8305 17.4873 16.4806L20.307 19.1507Z" fill="white"></path><path d="M42.1389 1.20947V12.986C42.1389 19.0629 38.0451 22.1772 32.38 22.1772C26.968 22.1772 22.3638 19.1808 22.3638 12.986V1.20947H26.5804V12.986C26.5804 16.6852 28.8987 18.6525 32.4117 18.6525C35.9206 18.6525 37.9175 16.5087 37.9175 12.986V1.20947H42.1389Z" fill="white"></path><path d="M20.6454 30.1341C20.6454 31.7185 19.8067 33.2463 17.7146 34.0989C20.355 34.8328 21.3221 37.3877 21.3221 38.6797C21.3221 43.2591 17.5539 44.7276 12.8834 44.7276C9.30898 44.7276 5.7663 44.7276 2.19189 44.7276V24.1724C5.73457 24.1724 9.30898 24.1724 12.8834 24.1724C17.3276 24.1724 20.6454 25.9927 20.6454 30.1341ZM6.37813 32.4241H12.8834C15.5563 32.4241 16.4261 31.395 16.4261 30.2217C16.4261 29.2829 15.5887 27.6957 12.8834 27.6957H6.37813V32.4241V32.4241ZM6.37813 41.1153H12.8834C14.6223 41.1153 17.1027 40.5855 17.1027 38.6487C17.1027 36.8001 14.6223 35.8289 12.8834 35.8289H6.37813V41.1153V41.1153Z" fill="white"></path><path d="M41.1251 44.7269H24.2505C24.2505 37.8844 24.2505 31.0149 24.2505 24.1724H41.1251V27.9309H28.4712V32.6586H40.6726V36.2703H28.4712V40.9104H41.1258V44.7269H41.1251Z" fill="white"></path></svg> 